<svg xmlns="http://www.w3.org/2000/svg" width="68.504" height="68.504" viewBox="0 0 68.504 68.504">
  <defs>
    <style>
      .cls-1 {
        fill: #675d39;
      }
    </style>
  </defs>
  <path id="business-value" class="cls-1" d="M63.058,39.39,67.5,45.318a5,5,0,0,1-.2,6.245L51.409,68.5l5.88-17.126H45.526L51.406,68.5,35.519,51.563a4.991,4.991,0,0,1-.2-6.245l4.447-5.928a5.7,5.7,0,0,1,4.567-2.283h4.581L45.7,45.669H57.115L53.9,37.106h4.584a5.7,5.7,0,0,1,4.567,2.283Zm5.446-13.7V31.4H0V25.689A14.288,14.288,0,0,1,14.272,11.417h3.143A14.3,14.3,0,0,1,31.4,0h5.709A14.3,14.3,0,0,1,51.09,11.417h3.143A14.288,14.288,0,0,1,68.5,25.689ZM45.144,11.417a8.551,8.551,0,0,0-8.038-5.709H31.4a8.551,8.551,0,0,0-8.038,5.709H45.141ZM31.36,55.471a10.7,10.7,0,0,1-.605-13.578l3.591-4.787H0V54.232A14.288,14.288,0,0,0,14.272,68.5H43.585Z"/>
</svg>
