<svg xmlns="http://www.w3.org/2000/svg" width="54.236" height="68.504" viewBox="0 0 54.236 68.504">
  <defs>
    <style>
      .cls-1 {
        fill: #675d39;
      }
    </style>
  </defs>
  <path id="diploma" class="cls-1" d="M25.836,34.254a2.855,2.855,0,1,1,0,5.709H17.273a2.855,2.855,0,1,1,0-5.709Zm17.127-8.564a2.855,2.855,0,0,0-2.855-2.855H17.273a2.855,2.855,0,1,0,0,5.709H40.109A2.855,2.855,0,0,0,42.963,25.691ZM17.273,17.127H40.109a2.855,2.855,0,0,0,0-5.709H17.273a2.855,2.855,0,1,0,0,5.709ZM51.527,55.5V66.445A2.058,2.058,0,0,1,48.013,67.9l-2.2-2.192-2.2,2.192a2.058,2.058,0,0,1-3.514-1.456V55.5a11.381,11.381,0,0,1,5.709-21.249,11.244,11.244,0,0,1,2.855.405V14.273a8.564,8.564,0,0,0-8.564-8.564H17.273a8.564,8.564,0,0,0-8.564,8.564V48.527a8.564,8.564,0,0,0,8.564,8.564H31.545a2.855,2.855,0,0,1,0,5.709H17.273A14.29,14.29,0,0,1,3,48.527V14.273A14.29,14.29,0,0,1,17.273,0H40.109A14.29,14.29,0,0,1,54.381,14.273V38.2a11.275,11.275,0,0,1-2.855,17.3Zm0-9.831a5.709,5.709,0,1,0-5.709,5.709A5.709,5.709,0,0,0,51.527,45.672Z" transform="translate(-3)"/>
</svg>
