<svg id="edit-alt" xmlns="http://www.w3.org/2000/svg" width="45.331" height="45.331" viewBox="0 0 45.331 45.331">
  <defs>
    <style>
      .cls-1 {
        fill: #f5f5f5;
      }
    </style>
  </defs>
  <path id="Trazado_5" data-name="Trazado 5" class="cls-1" d="M12.851,13.122c-4.376.842-6.545,5.715-7.485,8.753a1.889,1.889,0,0,0,1.806,2.454H14.2a5.666,5.666,0,0,0,5.644-6.184,5.868,5.868,0,0,0-6.989-5.022Z" transform="translate(4.692 11.559)"/>
  <path id="Trazado_6" data-name="Trazado 6" class="cls-1" d="M43.442,16.959a1.889,1.889,0,0,0-1.889,1.889v9.484H34A5.666,5.666,0,0,0,28.332,34v7.555H9.444a5.666,5.666,0,0,1-5.666-5.666V9.444A5.666,5.666,0,0,1,9.444,3.778H30.3A1.889,1.889,0,0,0,30.3,0H9.444A9.455,9.455,0,0,0,0,9.444V35.887a9.455,9.455,0,0,0,9.444,9.444H30.868a9.38,9.38,0,0,0,6.677-2.765l5.02-5.02a9.38,9.38,0,0,0,2.765-6.677V18.848A1.889,1.889,0,0,0,43.442,16.959ZM34.875,39.895a5.708,5.708,0,0,1-2.765,1.511V34A1.889,1.889,0,0,1,34,32.109h7.413A5.708,5.708,0,0,1,39.9,34.875Z"/>
  <path id="Trazado_7" data-name="Trazado 7" class="cls-1" d="M17.737,25.876A1.889,1.889,0,0,1,16.4,22.652L31.235,7.819a1.781,1.781,0,0,0,0-2.522,1.7,1.7,0,0,0-1.311-.519,1.762,1.762,0,0,0-1.281.593L14.288,21.25a1.889,1.889,0,0,1-2.8-2.533L25.84,2.852A5.57,5.57,0,0,1,29.82,1a5.638,5.638,0,0,1,4.085,1.628,5.566,5.566,0,0,1,0,7.863L19.073,25.324a1.876,1.876,0,0,1-1.335.552Z" transform="translate(9.775 0.888)"/>
</svg>
