<svg xmlns="http://www.w3.org/2000/svg" width="68.504" height="68.504" viewBox="0 0 68.504 68.504">
  <defs>
    <style>
      .cls-1 {
        fill: #675d39;
      }
    </style>
  </defs>
  <path id="flask-potion" class="cls-1" d="M48.523,17.283V8.563h5.709V0H14.272V8.563H19.98v8.72A32.807,32.807,0,0,0,0,47.1a31.656,31.656,0,0,0,6.956,19.78L8.24,68.5H60.26l1.284-1.627A31.642,31.642,0,0,0,68.5,47.1,32.807,32.807,0,0,0,48.523,17.283ZM25.629,24.267l2.914-.982V8.563H39.96V23.286l2.914.982A25.3,25.3,0,0,1,57.42,36.652C54.543,38.1,50,39.958,45.669,39.958c-4.087,0-6.679-1.15-9.679-2.486-3.4-1.51-7.253-3.223-13.156-3.223a32.836,32.836,0,0,0-11.805,2.512A25.293,25.293,0,0,1,25.629,24.267ZM56.01,59.941H12.493A23.034,23.034,0,0,1,8.566,47.5c1.787-1.079,8.223-4.69,14.269-4.69,4.087,0,6.679,1.15,9.679,2.486,3.4,1.51,7.253,3.223,13.156,3.223A35.065,35.065,0,0,0,59.844,45q.1,1.04.1,2.1A23,23,0,0,1,56.01,59.941Z"/>
</svg>
