<?xml version="1.0" encoding="UTF-8"?>
<svg xmlns="http://www.w3.org/2000/svg" version="1.1" xmlns:xlink="http://www.w3.org/1999/xlink" viewBox="0 0 83 82">
  <defs>
    <style>
      .cls-1 {
        fill: #fff;
      }

      .cls-2 {
        fill: url(#Degradado_sin_nombre_7);
      }

      .cls-3 {
        fill: url(#Degradado_sin_nombre_3);
      }
    </style>
    <linearGradient id="Degradado_sin_nombre_7" data-name="Degradado sin nombre 7" x1="-862.5" y1="621.8" x2="-862.5" y2="620.8" gradientTransform="translate(71631 50991) scale(83 -82)" gradientUnits="userSpaceOnUse">
      <stop offset="0" stop-color="#887d5c"/>
      <stop offset="1" stop-color="#bca96b"/>
    </linearGradient>
    <linearGradient id="Degradado_sin_nombre_3" data-name="Degradado sin nombre 3" x1="41.5" y1="79.9" x2="41.5" y2="2.1" gradientUnits="userSpaceOnUse">
      <stop offset="0" stop-color="#a2872c"/>
      <stop offset="1" stop-color="#544515"/>
    </linearGradient>
  </defs>
  <!-- Generator: Adobe Illustrator 28.6.0, SVG Export Plug-In . SVG Version: 1.2.0 Build 709)  -->
  <g>
    <g id="Capa_1">
      <g id="Rectángulo_219-2">
        <rect class="cls-2" width="83" height="82" rx="10" ry="10"/>
      </g>
      <rect class="cls-3" x="2.1" y="2.1" width="78.9" height="77.9" rx="8.1" ry="8.1"/>
      <path id="user-trust" class="cls-1" d="M28.5,32c0-5,4-9,9-9s9,4,9,9-4,9-9,9c-5,0-9-4-9-9ZM60,50c0,5-4,9-9,9s-9-4-9-9,4-9,9-9,9,4,9,9ZM56.6,47.4c-.6-.6-1.5-.6-2.1,0,0,0,0,0,0,0l-4.1,3.9c-.2.2-.6.2-.8,0l-2-2c-.6-.6-1.5-.6-2.1,0s-.6,1.5,0,2.1c0,0,0,0,0,0l2,2c.7.7,1.6,1,2.5,1,.9,0,1.8-.4,2.5-1l4.1-3.9c.6-.6.6-1.5,0-2.1,0,0,0,0,0,0h0ZM39,50c0-2,.5-3.9,1.4-5.7-1-.2-1.9-.3-2.9-.3h0c-7.4,0-13.5,6-13.5,13.5,0,.8.7,1.5,1.5,1.5,0,0,0,0,0,0h17.6c-2.6-2.3-4.1-5.6-4.1-9Z"/>
    </g>
  </g>
</svg>