<svg xmlns="http://www.w3.org/2000/svg" width="25.249" height="21.601" viewBox="0 0 25.249 21.601">
  <defs>
    <style>
      .cls-1 {
        fill: #707070;
      }
    </style>
  </defs>
  <g id="Grupo_45" data-name="Grupo 45" transform="translate(0 0)">
    <path id="Trazado_13" data-name="Trazado 13" class="cls-1" d="M1072.112-238.187c.048-.945.037-1.357.052-2.247h-.863l-.076-.017-.1-.021a2.616,2.616,0,0,1-2.3-2.918v-7.237a2.486,2.486,0,0,1,2.213-2.337l.041,0h13.213a2.436,2.436,0,0,1,2.485,2.357v7.68a2.44,2.44,0,0,1-2.736,2.511c-.143,0-.253-.008-.315-.014H1077.6l-3.431,2.443a5.257,5.257,0,0,1-.717.524C1073.06-237.243,1072.063-237.242,1072.112-238.187Zm1.873-1.44c.943-.72,3.156-2.248,3.156-2.248h6.668l.045.006h0s.075.008.189.008c1.3,0,1.3-.778,1.3-1.071v-7.631a1.324,1.324,0,0,0-.172-.526.941.941,0,0,0-.892-.44h-13.1a1.044,1.044,0,0,0-.911.966v7.173c0,1.28.578,1.395,1.137,1.506l.052.01h1.075l.045.006a1.073,1.073,0,0,1,1.034,1.006v.283c-.005.31-.01.585-.015.83C1073.591-239.749,1073.668-239.334,1073.984-239.626Z" transform="translate(-1068.824 252.969)"/>
    <path id="Sustracción_3" data-name="Sustracción 3" class="cls-1" d="M13.008,14.2a1.782,1.782,0,0,1-.7-.351L8.687,11.1H2.294a2.53,2.53,0,0,1-.278.014,2.534,2.534,0,0,1-1.237-.29A1.6,1.6,0,0,1,0,9.318v-4.9H6.2a2.48,2.48,0,0,0,.278.014A1.777,1.777,0,0,0,8.5,2.638V0h6.439a1.807,1.807,0,0,1,1.577,1.663v7.2c0,1.871-1.117,2.093-1.717,2.212l-.118.024h-1.1s-.4.052-.4.291v2.6a.229.229,0,0,1-.047.171A.155.155,0,0,1,13.008,14.2Z" transform="translate(8.735 7.399)"/>
    <path id="Trazado_14" data-name="Trazado 14" class="cls-1" d="M1080.085-240.841h-5.906a.72.72,0,0,1-.72-.72.72.72,0,0,1,.72-.72h5.906a.72.72,0,0,1,.72.72A.72.72,0,0,1,1080.085-240.841Z" transform="translate(-1070.363 249.42)"/>
    <path id="Trazado_15" data-name="Trazado 15" class="cls-1" d="M1084.615-245.563H1074.18a.72.72,0,0,1-.72-.72.72.72,0,0,1,.72-.72h10.436a.72.72,0,0,1,.72.72A.72.72,0,0,1,1084.615-245.563Z" transform="translate(-1070.363 250.988)"/>
  </g>
</svg>
