<svg xmlns="http://www.w3.org/2000/svg" width="20.881" height="20.881" viewBox="0 0 20.881 20.881">
  <defs>
    <style>
      .cls-1 {
        fill: #707070;
      }
    </style>
  </defs>
  <path id="store-alt-02" class="cls-1" d="M20.881,6.09,18.969,0H14.791V4.35h-1.74V0H7.83V4.35H6.09V0H1.912L.021,5.9,0,6.96A3.451,3.451,0,0,0,.87,9.238v9.033a2.613,2.613,0,0,0,2.61,2.61h6.96a2.613,2.613,0,0,0,2.61-2.61V9.952a3.482,3.482,0,0,0,.87-.692,3.472,3.472,0,0,0,2.61,1.181h.87a3.427,3.427,0,0,0,.87-.124V20.881h1.74V9.238a3.447,3.447,0,0,0,.87-2.278Zm-9.571,8.7H2.61V10.317a3.427,3.427,0,0,0,.87.124h.87a3.459,3.459,0,0,0,2.61-1.2,3.459,3.459,0,0,0,2.61,1.2h1.74Z"/>
</svg>
