<?xml version="1.0" encoding="UTF-8"?>
<svg xmlns="http://www.w3.org/2000/svg" version="1.1" xmlns:xlink="http://www.w3.org/1999/xlink" viewBox="0 0 88 88">
  <defs>
    <style>
      .cls-1 {
        fill: #f2f2ee;
      }

      .cls-2 {
        fill: url(#Degradado_sin_nombre_71-2);
      }

      .cls-3 {
        fill: url(#Degradado_sin_nombre_71-6);
      }

      .cls-4 {
        fill: url(#Degradado_sin_nombre_71);
      }

      .cls-5 {
        fill: url(#Degradado_sin_nombre_71-7);
      }

      .cls-6 {
        fill: url(#Degradado_sin_nombre_71-5);
      }

      .cls-7 {
        stroke: #000;
        stroke-linecap: round;
        stroke-linejoin: round;
        stroke-width: .2px;
      }

      .cls-8 {
        fill: #dedbd3;
      }

      .cls-9 {
        fill: url(#Degradado_sin_nombre_71-4);
      }

      .cls-10 {
        fill: url(#Degradado_sin_nombre_71-3);
      }
    </style>
    <linearGradient id="Degradado_sin_nombre_71" data-name="Degradado sin nombre 71" x1="27.3" y1="76.9" x2="77.8" y2="40.5" gradientUnits="userSpaceOnUse">
      <stop offset="0" stop-color="#845513"/>
      <stop offset=".3" stop-color="#b1892a"/>
      <stop offset=".4" stop-color="#cbb139"/>
      <stop offset=".5" stop-color="#f7ee8a"/>
      <stop offset=".8" stop-color="#b49735"/>
      <stop offset=".9" stop-color="#886b22"/>
      <stop offset="1" stop-color="#3e3217"/>
    </linearGradient>
    <linearGradient id="Degradado_sin_nombre_71-2" data-name="Degradado sin nombre 71" x1="28.8" y1="78.9" x2="79.3" y2="42.5" xlink:href="#Degradado_sin_nombre_71"/>
    <linearGradient id="Degradado_sin_nombre_71-3" data-name="Degradado sin nombre 71" x1="31.8" y1="83.2" x2="82.3" y2="46.7" xlink:href="#Degradado_sin_nombre_71"/>
    <linearGradient id="Degradado_sin_nombre_71-4" data-name="Degradado sin nombre 71" x1="25.2" y1="74" x2="75.7" y2="37.5" xlink:href="#Degradado_sin_nombre_71"/>
    <linearGradient id="Degradado_sin_nombre_71-5" data-name="Degradado sin nombre 71" x1="20.6" y1="67.6" x2="71.1" y2="31.1" xlink:href="#Degradado_sin_nombre_71"/>
    <linearGradient id="Degradado_sin_nombre_71-6" data-name="Degradado sin nombre 71" x1="13.3" y1="64.5" x2="78.5" y2="20.9" xlink:href="#Degradado_sin_nombre_71"/>
    <linearGradient id="Degradado_sin_nombre_71-7" data-name="Degradado sin nombre 71" x1="13.5" y1="57.8" x2="64" y2="21.4" xlink:href="#Degradado_sin_nombre_71"/>
  </defs>
  <!-- Generator: Adobe Illustrator 28.6.0, SVG Export Plug-In . SVG Version: 1.2.0 Build 709)  -->
  <g>
    <g id="Capa_1">
      <g>
        <circle class="cls-1" cx="44" cy="44" r="44"/>
        <circle class="cls-8" cx="44" cy="44" r="42"/>
        <circle cx="44" cy="44" r="39.5"/>
      </g>
      <g>
        <path class="cls-4" d="M41.8,66.2h-.7v1h.7c.2,0,.3,0,.4-.1s.1-.2.1-.4,0-.3-.1-.4c0,0-.2-.1-.5-.1Z"/>
        <polygon class="cls-2" points="45.2 66.2 44.6 67.6 45.7 67.6 45.2 66.2"/>
        <path class="cls-10" d="M53.5,68.1c.1.1.3.2.5.2s.4,0,.5-.2.2-.3.2-.6c0-.1,0-.2,0-.3s0-.2,0-.3c0-.2,0-.3-.1-.4,0-.1-.1-.2-.3-.2-.1,0-.2,0-.4,0s-.2,0-.4,0c-.1,0-.2.1-.3.2,0,.1,0,.3-.1.4,0,.1,0,.2,0,.3s0,.2,0,.3c0,.3,0,.5.2.6Z"/>
        <polygon class="cls-9" points="34.7 66.2 34.2 67.6 35.2 67.6 34.7 66.2"/>
        <path class="cls-6" d="M22,66.2h-.7v1h.7c.2,0,.3,0,.4-.1,0,0,.1-.2.1-.4s0-.3-.1-.4c0,0-.2-.1-.5-.1Z"/>
        <path class="cls-3" d="M44,3.8C21.8,3.8,3.8,21.8,3.8,44s18,40.2,40.2,40.2,40.2-18,40.2-40.2S66.2,3.8,44,3.8ZM64.9,70.7H21v-.5h44v.5ZM23.1,68.5s0,0,0,0c0,0,0,0,0,0,0,0,0,0,0,0h-.2s0,0-.1,0c0,0,0,0,0,0l-.6-1h-.7v1s0,0,0,0c0,0,0,0,0,0h-.2s0,0,0,0c0,0,0,0,0,0v-2.6s0,0,0,0c0,0,0,0,0,0h1c.3,0,.5,0,.7.2.2.1.3.3.3.6s0,.4-.2.5-.2.2-.4.3l.6,1ZM26,67s0,0,0,0c0,0,0,0,0,0h0c0,.2,0,.2,0,.2,0,0,0,0,0,0h-1.3v.9h1.4s0,0,0,0,0,0,0,0v.2s0,0,0,0c0,0,0,0,0,0h-1.7s0,0,0,0c0,0,0,0,0,0v-2.6s0,0,0,0c0,0,0,0,0,0h1.7s0,0,0,0c0,0,0,0,0,0h0c0,.2,0,.2,0,.2,0,0,0,0,0,0h-1.4v.9h1.3ZM29.1,67.6c0,0-.1-.1-.3-.2-.1,0-.3,0-.5-.1-.2,0-.4-.1-.5-.2-.1,0-.2-.1-.3-.2,0,0,0-.2,0-.4s0-.3.1-.4c0-.1.2-.2.3-.3.1,0,.3,0,.5,0s.3,0,.4,0c.1,0,.2.1.3.2,0,0,.1.1.2.2,0,0,0,.2,0,.2,0,0,0,0,0,0,0,0,0,0,0,0h-.2s0,0,0,0c0,0,0,0,0,0,0-.1,0-.2-.2-.3-.1,0-.2-.1-.4-.1s-.3,0-.4,0c-.1,0-.2.2-.2.3s0,.2,0,.2c0,0,.1.1.2.2.1,0,.3,0,.4.1.2,0,.4.1.5.2.1,0,.2.1.3.2,0,0,0,.2,0,.4s0,.3-.1.4c0,.1-.2.2-.4.3s-.3,0-.6,0-.4,0-.6-.1c-.2,0-.3-.2-.4-.3,0-.1-.1-.2-.1-.4,0,0,0,0,0,0,0,0,0,0,0,0h.2s0,0,0,0c0,0,0,0,0,0,0,0,0,.1,0,.2,0,0,.1.1.2.2,0,0,.2,0,.4,0,.2,0,.4,0,.5-.1.1,0,.2-.2.2-.3s0-.2,0-.2ZM30.7,66.2s0,0,0,0c0,0,0,0,0,0v-.2s0,0,0,0c0,0,0,0,0,0h1.9s0,0,0,0c0,0,0,0,0,0v.2s0,0,0,0c0,0,0,0,0,0h-.8v2.3s0,0,0,0c0,0,0,0,0,0h-.2s0,0,0,0c0,0,0,0,0,0v-2.3h-.8ZM33.4,68.5s0,0,0,0l1-2.5s0,0,0,0,0,0,0,0h.3s0,0,0,0,0,0,0,0l1,2.5s0,0,0,0c0,0,0,0,0,0s0,0,0,0h-.2s0,0,0,0c0,0,0,0,0,0l-.2-.6h-1.3l-.2.6s0,0,0,0,0,0,0,0h-.2s0,0,0,0,0,0,0,0ZM37.7,68.1c.1.1.3.2.5.2s.4,0,.5-.2.2-.3.2-.6v-1.6s0,0,0,0c0,0,0,0,0,0h.2s0,0,0,0c0,0,0,0,0,0v1.6c0,.3,0,.5-.1.6,0,.2-.2.3-.4.4-.2,0-.4.1-.6.1s-.4,0-.6-.1c-.2,0-.3-.2-.4-.4,0-.2-.1-.4-.1-.6v-1.6s0,0,0,0c0,0,0,0,0,0h.2s0,0,0,0c0,0,0,0,0,0v1.6c0,.3,0,.4.2.6ZM42.8,68.5s0,0,0,0c0,0,0,0,0,0s0,0,0,0h-.2s0,0-.1,0,0,0,0,0l-.6-1h-.7v1s0,0,0,0c0,0,0,0,0,0h-.2s0,0,0,0c0,0,0,0,0,0v-2.6s0,0,0,0c0,0,0,0,0,0h1c.3,0,.5,0,.7.2.2.1.3.3.3.6s0,.4-.2.5c-.1.1-.2.2-.4.3l.6,1ZM43.9,68.5s0,0,0,0l1-2.5s0,0,0,0c0,0,0,0,0,0h.3s0,0,0,0c0,0,0,0,0,0l1,2.5s0,0,0,0c0,0,0,0,0,0s0,0,0,0h-.2s0,0,0,0,0,0,0,0l-.2-.6h-1.3l-.2.6s0,0,0,0,0,0,0,0h-.2s0,0,0,0,0,0,0,0ZM47.9,67.5c0,.3,0,.5.2.6s.3.2.5.2.3,0,.5-.1c.1,0,.2-.2.3-.4,0,0,0,0,0,0,0,0,0,0,0,0h.2s0,0,0,0c0,0,0,0,0,0,0,.1,0,.2,0,.3,0,.1-.1.2-.2.3,0,0-.2.2-.3.2-.1,0-.3,0-.5,0s-.4,0-.6-.1c-.2,0-.3-.2-.4-.4s-.1-.3-.1-.6c0-.1,0-.2,0-.3s0-.2,0-.4c0-.2,0-.4.1-.6,0-.2.2-.3.4-.4.2,0,.4-.1.6-.1s.3,0,.5,0c.1,0,.3.1.3.2,0,0,.2.2.2.3,0,.1,0,.2,0,.3,0,0,0,0,0,0,0,0,0,0,0,0h-.2s0,0,0,0c0,0,0,0,0,0,0-.2-.1-.3-.3-.4-.1,0-.3-.1-.5-.1s-.4,0-.5.2c-.1.1-.2.3-.2.6,0,.2,0,.4,0,.7ZM51.1,68.5v-2.6s0,0,0,0c0,0,0,0,0,0h.2s0,0,0,0c0,0,0,0,0,0v2.6s0,0,0,0c0,0,0,0,0,0h-.2s0,0,0,0c0,0,0,0,0,0ZM52.8,67.2c0-.1,0-.2,0-.3,0-.2,0-.4.2-.6,0-.2.2-.3.4-.4.2,0,.4-.1.6-.1s.4,0,.6.1c.2,0,.3.2.4.4,0,.2.1.4.2.6,0,.1,0,.2,0,.3s0,.2,0,.3c0,.2,0,.4-.1.6,0,.2-.2.3-.4.4-.2,0-.4.1-.6.1s-.4,0-.6-.1c-.2,0-.3-.2-.4-.4,0-.2-.1-.4-.1-.6,0-.1,0-.2,0-.3ZM56.5,68.5v-2.6s0,0,0,0c0,0,0,0,0,0h.2s0,0,0,0c0,0,0,0,0,0l1.3,2v-2s0,0,0,0c0,0,0,0,0,0h.2s0,0,0,0c0,0,0,0,0,0v2.6s0,0,0,0c0,0,0,0,0,0h-.2s0,0,0,0c0,0,0,0,0,0l-1.3-2v1.9s0,0,0,0c0,0,0,0,0,0h-.2s0,0,0,0c0,0,0,0,0,0ZM61.7,67s0,0,0,0c0,0,0,0,0,0h0c0,.2,0,.2,0,.2,0,0,0,0,0,0h-1.3v.9h1.4s0,0,0,0,0,0,0,0v.2s0,0,0,0c0,0,0,0,0,0h-1.7s0,0,0,0c0,0,0,0,0,0v-2.6s0,0,0,0c0,0,0,0,0,0h1.7s0,0,0,0c0,0,0,0,0,0h0c0,.2,0,.2,0,.2,0,0,0,0,0,0h-1.4v.9h1.3ZM65.1,68.3c0,.1-.2.2-.4.3-.2,0-.3,0-.6,0s-.4,0-.6-.1-.3-.2-.4-.3c0-.1-.1-.2-.1-.4,0,0,0,0,0,0,0,0,0,0,0,0h.2s0,0,0,0,0,0,0,0c0,0,0,.1,0,.2,0,0,.1.1.2.2,0,0,.2,0,.4,0,.2,0,.4,0,.5-.1.1,0,.2-.2.2-.3s0-.2,0-.2c0,0-.1-.1-.3-.2-.1,0-.3,0-.5-.1-.2,0-.4-.1-.5-.2-.1,0-.2-.1-.3-.2,0,0,0-.2,0-.4s0-.3.1-.4.2-.2.3-.3c.1,0,.3,0,.5,0s.3,0,.4,0c.1,0,.2.1.3.2,0,0,.1.1.2.2s0,.2,0,.2c0,0,0,0,0,0,0,0,0,0,0,0h-.2s0,0,0,0c0,0,0,0,0,0,0-.1,0-.2-.2-.3-.1,0-.2-.1-.4-.1s-.3,0-.4,0c-.1,0-.2.2-.2.3s0,.2,0,.2c0,0,.1.1.2.2.1,0,.3,0,.4.1.2,0,.4.1.5.2.1,0,.2.1.3.2s0,.2,0,.4,0,.3-.1.4ZM71.1,55.7c0,3.7-3,6.6-6.6,6.6H16.9l5.3-37.2h10.6l3.6,24.2v-31.5h11c3.5,0,6.3,2.8,6.3,6.3v24.3c0,2.7-2.2,4.9-4.9,4.9h-18.1l-2.7-21.9h-.6l-3.3,24.2h38.5c.7,0,1.3-.6,1.3-1.3v-3.9c0-.7-.3-1.4-.8-1.9l-6.1-5.7c-1.6-1.5-2.5-3.6-2.5-5.7v-6.3c0-3.3,2.7-6,6-6h3.3c3.6,0,6.5,2.9,6.5,6.5v5h-7v-5c0-.2-.2-.4-.4-.4h-1.3c-.2,0-.4.2-.4.4v4.5l7.8,7.2c1.3,1.2,2,2.8,2,4.5v8Z"/>
        <path class="cls-5" d="M46.4,45v-18.9c0-1.3-1-2.3-2.3-2.3h-.1v23.5h.1c1.3,0,2.3-1,2.3-2.3Z"/>
      </g>
      <g>
        <rect x="20.8" y="70.1" width="44.4" height=".7"/>
        <path class="cls-7" d="M21.1,68.6h.2s0,0,0,0c0,0,0,0,0,0v-1h.7l.6,1s0,0,0,0c0,0,0,0,.1,0h.2s0,0,0,0c0,0,0,0,0,0s0,0,0,0l-.6-1c.2,0,.3-.1.4-.3s.2-.3.2-.5,0-.5-.3-.6c-.2-.1-.4-.2-.7-.2h-1s0,0,0,0c0,0,0,0,0,0v2.6s0,0,0,0c0,0,0,0,0,0ZM21.4,66.2h.7c.2,0,.4,0,.5.1s.1.2.1.4,0,.3-.1.4c0,0-.2.1-.4.1h-.7v-1Z"/>
        <path class="cls-7" d="M24.5,68.6h1.7s0,0,0,0c0,0,0,0,0,0v-.2s0,0,0,0c0,0,0,0,0,0h-1.4v-.9h1.3s0,0,0,0c0,0,0,0,0,0h0c0-.2,0-.2,0-.2,0,0,0,0,0,0h-1.3v-.9h1.4s0,0,0,0c0,0,0,0,0,0h0c0-.2,0-.2,0-.2,0,0,0,0,0,0h-1.7s0,0,0,0c0,0,0,0,0,0v2.6s0,0,0,0c0,0,0,0,0,0Z"/>
        <path class="cls-7" d="M27.9,68.5c.2,0,.4.1.6.1s.4,0,.6,0c.2,0,.3-.2.4-.3,0-.1.1-.3.1-.4s0-.3,0-.4-.2-.2-.3-.2-.3-.1-.5-.2c-.2,0-.3,0-.4-.1-.1,0-.2,0-.2-.2,0,0,0-.1,0-.2,0-.1,0-.2.2-.3.1,0,.2,0,.4,0s.3,0,.4.1c.1,0,.2.2.2.3,0,0,0,0,0,0,0,0,0,0,0,0h.2s0,0,0,0c0,0,0,0,0,0,0,0,0-.2,0-.2,0,0-.1-.2-.2-.2,0,0-.2-.1-.3-.2-.1,0-.3,0-.4,0s-.4,0-.5,0c-.1,0-.3.2-.3.3s-.1.2-.1.4,0,.3,0,.4c0,0,.2.2.3.2.1,0,.3.1.5.2.2,0,.3.1.5.1.1,0,.2,0,.3.2,0,0,0,.1,0,.2,0,.1,0,.2-.2.3-.1,0-.3.1-.5.1s-.3,0-.4,0-.2,0-.2-.2c0,0,0-.1,0-.2,0,0,0,0,0,0,0,0,0,0,0,0h-.2s0,0,0,0c0,0,0,0,0,0,0,.1,0,.2.1.4,0,.1.2.2.4.3Z"/>
        <path class="cls-7" d="M30.7,66.2h.8v2.3s0,0,0,0c0,0,0,0,0,0h.2s0,0,0,0c0,0,0,0,0,0v-2.3h.8s0,0,0,0c0,0,0,0,0,0v-.2s0,0,0,0c0,0,0,0,0,0h-1.9s0,0,0,0c0,0,0,0,0,0v.2s0,0,0,0c0,0,0,0,0,0Z"/>
        <path class="cls-7" d="M33.5,68.6h.2s0,0,0,0c0,0,0,0,0,0l.2-.6h1.3l.2.6s0,0,0,0c0,0,0,0,0,0h.2s0,0,0,0c0,0,0,0,0,0s0,0,0,0l-1-2.5s0,0,0,0,0,0,0,0h-.3s0,0,0,0,0,0,0,0l-1,2.5s0,0,0,0c0,0,0,0,0,0,0,0,0,0,0,0ZM34.7,66.2l.5,1.4h-1.1l.5-1.4Z"/>
        <path class="cls-7" d="M37.6,68.5c.2,0,.4.1.6.1s.4,0,.6-.1c.2,0,.3-.2.4-.4,0-.2.1-.4.1-.6v-1.6s0,0,0,0c0,0,0,0,0,0h-.2s0,0,0,0,0,0,0,0v1.6c0,.3,0,.4-.2.6s-.3.2-.5.2-.4,0-.5-.2-.2-.3-.2-.6v-1.6s0,0,0,0,0,0,0,0h-.2s0,0,0,0c0,0,0,0,0,0v1.6c0,.3,0,.5.1.6,0,.2.2.3.4.4Z"/>
        <path class="cls-7" d="M40.8,68.6h.2s0,0,0,0c0,0,0,0,0,0v-1h.7l.6,1s0,0,0,0c0,0,0,0,.1,0h.2s0,0,0,0c0,0,0,0,0,0s0,0,0,0l-.6-1c.2,0,.3-.1.4-.3.1-.1.2-.3.2-.5s0-.5-.3-.6c-.2-.1-.4-.2-.7-.2h-1s0,0,0,0c0,0,0,0,0,0v2.6s0,0,0,0c0,0,0,0,0,0ZM41.1,66.2h.7c.2,0,.4,0,.5.1,0,0,.1.2.1.4s0,.3-.1.4c0,0-.2.1-.4.1h-.7v-1Z"/>
        <path class="cls-7" d="M44,68.6h.2s0,0,0,0c0,0,0,0,0,0l.2-.6h1.3l.2.6s0,0,0,0c0,0,0,0,0,0h.2s0,0,0,0c0,0,0,0,0,0s0,0,0,0l-1-2.5s0,0,0,0c0,0,0,0,0,0h-.3s0,0,0,0c0,0,0,0,0,0l-1,2.5s0,0,0,0c0,0,0,0,0,0,0,0,0,0,0,0ZM45.2,66.2l.5,1.4h-1.1l.5-1.4Z"/>
        <path class="cls-7" d="M47.6,68.1c0,.2.2.3.4.4.2,0,.4.1.6.1s.3,0,.5,0c.1,0,.3-.1.3-.2,0,0,.2-.2.2-.3,0-.1,0-.2,0-.3,0,0,0,0,0,0,0,0,0,0,0,0h-.2s0,0,0,0c0,0,0,0,0,0,0,.2-.1.3-.3.4-.1,0-.3.1-.5.1s-.4,0-.5-.2-.2-.3-.2-.6c0-.2,0-.4,0-.7,0-.3,0-.5.2-.6.1-.1.3-.2.5-.2s.3,0,.5.1c.1,0,.2.2.3.4,0,0,0,0,0,0,0,0,0,0,0,0h.2s0,0,0,0c0,0,0,0,0,0,0-.1,0-.2,0-.3,0-.1-.1-.2-.2-.3,0,0-.2-.2-.3-.2-.1,0-.3,0-.5,0s-.4,0-.6.1c-.2,0-.3.2-.4.4,0,.2-.1.3-.1.6,0,.1,0,.2,0,.4s0,.2,0,.3c0,.2,0,.4.1.6Z"/>
        <path class="cls-7" d="M51.2,68.6h.2s0,0,0,0c0,0,0,0,0,0v-2.6s0,0,0,0c0,0,0,0,0,0h-.2s0,0,0,0c0,0,0,0,0,0v2.6s0,0,0,0c0,0,0,0,0,0Z"/>
        <path class="cls-7" d="M53,68.1c0,.2.2.3.4.4.2,0,.4.1.6.1s.4,0,.6-.1c.2,0,.3-.2.4-.4s.1-.4.1-.6c0-.1,0-.2,0-.3s0-.2,0-.3c0-.2,0-.4-.2-.6,0-.2-.2-.3-.4-.4-.2,0-.4-.1-.6-.1s-.4,0-.6.1c-.2,0-.3.2-.4.4,0,.2-.1.4-.2.6,0,.1,0,.2,0,.3s0,.2,0,.3c0,.2,0,.4.1.6ZM53.3,66.9c0-.2,0-.3.1-.4,0-.1.1-.2.3-.2.1,0,.2,0,.4,0s.3,0,.4,0c.1,0,.2.1.3.2,0,.1,0,.3.1.4,0,.1,0,.2,0,.3s0,.2,0,.3c0,.3,0,.5-.2.6s-.3.2-.5.2-.4,0-.5-.2-.2-.3-.2-.6c0-.1,0-.2,0-.3s0-.2,0-.3Z"/>
        <path class="cls-7" d="M56.6,68.6h.2s0,0,0,0c0,0,0,0,0,0v-1.9l1.3,2s0,0,0,0,0,0,0,0h.2s0,0,0,0c0,0,0,0,0,0v-2.6s0,0,0,0c0,0,0,0,0,0h-.2s0,0,0,0c0,0,0,0,0,0v2l-1.3-2s0,0,0,0c0,0,0,0,0,0h-.2s0,0,0,0c0,0,0,0,0,0v2.6s0,0,0,0c0,0,0,0,0,0Z"/>
        <path class="cls-7" d="M60.1,68.6h1.7s0,0,0,0c0,0,0,0,0,0v-.2s0,0,0,0c0,0,0,0,0,0h-1.4v-.9h1.3s0,0,0,0c0,0,0,0,0,0h0c0-.2,0-.2,0-.2,0,0,0,0,0,0h-1.3v-.9h1.4s0,0,0,0c0,0,0,0,0,0h0c0-.2,0-.2,0-.2,0,0,0,0,0,0h-1.7s0,0,0,0c0,0,0,0,0,0v2.6s0,0,0,0c0,0,0,0,0,0Z"/>
        <path class="cls-7" d="M65.1,67.5c0,0-.2-.2-.3-.2-.1,0-.3-.1-.5-.2-.2,0-.3,0-.4-.1-.1,0-.2,0-.2-.2,0,0,0-.1,0-.2,0-.1,0-.2.2-.3.1,0,.2,0,.4,0s.3,0,.4.1c.1,0,.2.2.2.3,0,0,0,0,0,0,0,0,0,0,0,0h.2s0,0,0,0c0,0,0,0,0,0,0,0,0-.2,0-.2,0,0-.1-.2-.2-.2,0,0-.2-.1-.3-.2-.1,0-.3,0-.4,0s-.4,0-.5,0c-.1,0-.3.2-.3.3s-.1.2-.1.4,0,.3,0,.4.2.2.3.2c.1,0,.3.1.5.2.2,0,.3.1.5.1.1,0,.2,0,.3.2,0,0,0,.1,0,.2,0,.1,0,.2-.2.3-.1,0-.3.1-.5.1s-.3,0-.4,0-.2,0-.2-.2c0,0,0-.1,0-.2,0,0,0,0,0,0,0,0,0,0,0,0h-.2s0,0,0,0c0,0,0,0,0,0,0,.1,0,.2.1.4,0,.1.2.2.4.3.2,0,.4.1.6.1s.4,0,.6,0c.2,0,.3-.2.4-.3,0-.1.1-.3.1-.4s0-.3,0-.4Z"/>
      </g>
    </g>
  </g>
</svg>