<svg xmlns="http://www.w3.org/2000/svg" width="20.88" height="20.881" viewBox="0 0 20.88 20.881">
  <defs>
    <style>
      .cls-1 {
        fill: #707070;
      }
    </style>
  </defs>
  <path id="palette" class="cls-1" d="M20.284,14.136a1.642,1.642,0,0,1-1.2,1.024,1.663,1.663,0,0,1-1.539-.453l-.087-.087a3.1,3.1,0,0,0-5.3,2.221l.035,3.929-.8.067c-.288.024-.577.043-.87.043A10.44,10.44,0,1,1,10.885.006,10.574,10.574,0,0,1,20.958,10.178,10.373,10.373,0,0,1,20.284,14.136ZM14.9,7a1.3,1.3,0,1,0,1.6.926A1.3,1.3,0,0,0,14.9,7Zm-4.35-2.61a1.3,1.3,0,1,0,1.6.926,1.3,1.3,0,0,0-1.6-.926ZM6.2,7a1.3,1.3,0,1,0,1.6.926A1.3,1.3,0,0,0,6.2,7Zm0,5.219a1.3,1.3,0,1,0,1.6.926,1.3,1.3,0,0,0-1.6-.926Z" transform="translate(-0.082 0.002)"/>
</svg>
