<svg xmlns="http://www.w3.org/2000/svg" width="21.599" height="20.616" viewBox="0 0 21.599 20.616">
  <defs>
    <style>
      .cls-1 {
        fill: #707070;
      }
    </style>
  </defs>
  <path id="Sustracción_2" data-name="Sustracción 2" class="cls-1" d="M7.2,20.616H2.159A2.162,2.162,0,0,1,0,18.456V8.376a2.176,2.176,0,0,1,1.043-1.85C2.381,5.437,9.152,0,11.061,0c2.092,0,9.689,6.609,9.766,6.675L20.8,6.7a2.154,2.154,0,0,1,.8,1.677v10.08a2.162,2.162,0,0,1-2.159,2.159H14.4v-5.7a1.5,1.5,0,0,0-1.5-1.5H8.7a1.5,1.5,0,0,0-1.5,1.5v5.7Z"/>
</svg>
