<svg xmlns="http://www.w3.org/2000/svg" width="20.881" height="20.881" viewBox="0 0 20.881 20.881">
  <defs>
    <style>
      .cls-1 {
        fill: #707070;
      }
    </style>
  </defs>
  <path id="user-trust" class="cls-1" d="M2.61,5.22a5.22,5.22,0,1,1,5.22,5.22A5.226,5.226,0,0,1,2.61,5.22ZM20.881,15.661a5.22,5.22,0,1,1-5.22-5.22A5.22,5.22,0,0,1,20.881,15.661ZM18.891,14.18a.871.871,0,0,0-1.23-.025L15.3,16.438a.325.325,0,0,1-.454,0l-1.178-1.158a.87.87,0,1,0-1.218,1.242l1.178,1.159a2.067,2.067,0,0,0,1.447.586,2.043,2.043,0,0,0,1.438-.584l2.352-2.274a.871.871,0,0,0,.025-1.23ZM8.7,15.661a6.93,6.93,0,0,1,.827-3.29,7.794,7.794,0,0,0-1.7-.191h0A7.84,7.84,0,0,0,0,20a.877.877,0,0,0,.87.885h10.2A6.936,6.936,0,0,1,8.7,15.661Z"/>
</svg>
