<?xml version="1.0" encoding="UTF-8"?>
<svg xmlns="http://www.w3.org/2000/svg" version="1.1" xmlns:xlink="http://www.w3.org/1999/xlink" viewBox="0 0 83 82">
  <defs>
    <style>
      .cls-1 {
        fill: url(#Degradado_sin_nombre_4);
      }

      .cls-2 {
        fill: url(#Degradado_sin_nombre_3);
      }

      .cls-3 {
        fill: #dcdcdc;
      }
    </style>
    <linearGradient id="Degradado_sin_nombre_4" data-name="Degradado sin nombre 4" x1="-1725" y1="10.7" x2="-1725" y2="11.7" gradientTransform="translate(143217 -876) scale(83 82)" gradientUnits="userSpaceOnUse">
      <stop offset="0" stop-color="#887d5c"/>
      <stop offset="1" stop-color="#bca96b"/>
    </linearGradient>
    <linearGradient id="Degradado_sin_nombre_3" data-name="Degradado sin nombre 3" x1="41.5" y1="94.1" x2="41.5" y2="171.9" gradientTransform="translate(0 174) scale(1 -1)" gradientUnits="userSpaceOnUse">
      <stop offset="0" stop-color="#a2872c"/>
      <stop offset="1" stop-color="#544515"/>
    </linearGradient>
  </defs>
  <!-- Generator: Adobe Illustrator 28.6.0, SVG Export Plug-In . SVG Version: 1.2.0 Build 709)  -->
  <g>
    <g id="Capa_1">
      <g id="Capa_1-2" data-name="Capa_1">
        <g>
          <g id="Rectángulo_219-2">
            <rect class="cls-1" width="83" height="82" rx="10" ry="10"/>
          </g>
          <rect class="cls-2" x="2.1" y="2.1" width="78.9" height="77.9" rx="8.1" ry="8.1"/>
        </g>
      </g>
      <path id="search-analytics-magnifying-glass" class="cls-3" d="M56.3,54.1c1.2,1.2,1.2,3.1,0,4.3-1.2,1.2-3.1,1.2-4.3,0l-7.7-7.7c-.6.4-1.2.8-1.9,1.1-7.6,3.6-16.7.3-20.2-7.3-3.6-7.6-.3-16.7,7.3-20.2,7.6-3.6,16.7-.3,20.2,7.3,1.3,2.7,1.7,5.8,1.3,8.8-.2,1.5-.7,2.9-1.3,4.2-.3.7-.7,1.3-1.1,1.9l7.7,7.7ZM35.9,47.1c5,0,9.1-4.1,9.1-9.1,0-5-4.1-9.1-9.1-9.1-5,0-9.1,4.1-9.1,9.1,0,3.7,2.2,7,5.6,8.4,1.1.5,2.3.7,3.6.7Z"/>
    </g>
  </g>
</svg>