<svg xmlns="http://www.w3.org/2000/svg" width="17.401" height="20.881" viewBox="0 0 17.401 20.881">
  <defs>
    <style>
      .cls-1 {
        fill: #707070;
      }
    </style>
  </defs>
  <path id="assept-document" class="cls-1" d="M12.441,6.09V.4a6.07,6.07,0,0,1,2.145,1.383l3.031,3.033A6.05,6.05,0,0,1,19,6.96h-5.69a.87.87,0,0,1-.87-.87ZM19.4,9.122v7.408a4.355,4.355,0,0,1-4.35,4.35H6.35A4.355,4.355,0,0,1,2,16.531V4.35A4.355,4.355,0,0,1,6.35,0h3.928c.142,0,.282.011.422.021V6.09a2.61,2.61,0,0,0,2.61,2.61H19.38c.01.14.021.28.021.422Zm-4.59,3.329a.87.87,0,0,0-1.229-.03l-3.132,2.985a.87.87,0,0,1-1.267-.035L7.8,14.141a.871.871,0,1,0-1.159,1.3l1.343,1.2a2.61,2.61,0,0,0,3.677.015l3.119-2.97A.87.87,0,0,0,14.811,12.451Z" transform="translate(-2)"/>
</svg>
