<?xml version="1.0" encoding="UTF-8"?>
<svg xmlns="http://www.w3.org/2000/svg" version="1.1" xmlns:xlink="http://www.w3.org/1999/xlink" viewBox="0 0 83 82">
  <defs>
    <style>
      .cls-1 {
        fill: #fff;
      }

      .cls-2 {
        fill: url(#Degradado_sin_nombre_7);
      }

      .cls-3 {
        fill: url(#Degradado_sin_nombre_3);
      }
    </style>
    <linearGradient id="Degradado_sin_nombre_7" data-name="Degradado sin nombre 7" x1="-862.5" y1="621.8" x2="-862.5" y2="620.8" gradientTransform="translate(71631 50991) scale(83 -82)" gradientUnits="userSpaceOnUse">
      <stop offset="0" stop-color="#887d5c"/>
      <stop offset="1" stop-color="#bca96b"/>
    </linearGradient>
    <linearGradient id="Degradado_sin_nombre_3" data-name="Degradado sin nombre 3" x1="41.5" y1="79.9" x2="41.5" y2="2.1" gradientUnits="userSpaceOnUse">
      <stop offset="0" stop-color="#a2872c"/>
      <stop offset="1" stop-color="#544515"/>
    </linearGradient>
  </defs>
  <!-- Generator: Adobe Illustrator 28.6.0, SVG Export Plug-In . SVG Version: 1.2.0 Build 709)  -->
  <g>
    <g id="Capa_1">
      <g>
        <g id="Rectángulo_219-2">
          <rect class="cls-2" width="83" height="82" rx="10" ry="10"/>
        </g>
        <rect class="cls-3" x="2.1" y="2.1" width="78.9" height="77.9" rx="8.1" ry="8.1"/>
      </g>
      <path id="business-value" class="cls-1" d="M57.1,43.7l2.3,3.1c.7,1,.7,2.3-.1,3.3l-8.4,8.9,3.1-9h-6.2l3.1,9-8.3-8.9c-.8-.9-.8-2.3-.1-3.3l2.3-3.1c.6-.8,1.5-1.2,2.4-1.2h2.4l-1.7,4.5h6l-1.7-4.5h2.4c.9,0,1.8.4,2.4,1.2h0ZM60,36.5v3H24v-3c0-4.1,3.4-7.5,7.5-7.5h1.7c.7-3.5,3.8-6,7.3-6h3c3.6,0,6.6,2.5,7.3,6h1.7c4.1,0,7.5,3.4,7.5,7.5ZM47.7,29c-.6-1.8-2.3-3-4.2-3h-3c-1.9,0-3.6,1.2-4.2,3h11.4ZM40.5,52.2c-1.8-2-1.9-5-.3-7.1l1.9-2.5h-18v9c0,4.1,3.4,7.5,7.5,7.5h15.4l-6.4-6.8Z"/>
    </g>
  </g>
</svg>