<?xml version="1.0" encoding="UTF-8"?>
<svg xmlns="http://www.w3.org/2000/svg" version="1.1" viewBox="0 0 22.8 20.9">
  <defs>
    <style>
      .cls-1 {
        fill: #707070;
      }
    </style>
  </defs>
  <!-- Generator: Adobe Illustrator 28.6.0, SVG Export Plug-In . SVG Version: 1.2.0 Build 709)  -->
  <g>
    <g id="Capa_1">
      <path id="folder-open" class="cls-1" d="M22.3,9.5c-.5-.6-1.2-1-1.9-1h-.4v-1.9c0-2.6-2.1-4.7-4.7-4.7h-4.8c-.1,0-.3,0-.4,0L7,.3C6.6.1,6.1,0,5.7,0h-1.9C1.7,0,0,1.7,0,3.8s0,0,0,0v12.3c0,2.6,2.1,4.7,4.7,4.7h11.9c2.1,0,4-1.4,4.6-3.4l1.5-5.8c.2-.7,0-1.5-.4-2.1h0ZM1.9,16.1V3.8c0-1,.9-1.9,1.9-1.9h1.9c.1,0,.3,0,.4,0l3,1.5c.4.2.8.3,1.3.3h4.8c1.6,0,2.8,1.3,2.8,2.8v1.9h-9.9c-1.6,0-3.1,1-3.6,2.6l-2.1,6.8c-.4-.5-.6-1.1-.6-1.8Z"/>
    </g>
  </g>
</svg>