<svg xmlns="http://www.w3.org/2000/svg" width="68.477" height="68.504" viewBox="0 0 68.477 68.504">
  <defs>
    <style>
      .cls-1 {
        fill: #675d39;
      }
    </style>
  </defs>
  <path id="key" class="cls-1" d="M21.4,68.5A21.407,21.407,0,0,1,15.593,26.5a21.031,21.031,0,0,1,11.078-.137L49.243,3.793A12.844,12.844,0,0,1,58.394,0h0A10.1,10.1,0,0,1,68.487,10.093,12.867,12.867,0,0,1,64.7,19.247l-1.918,1.918a5.749,5.749,0,0,1-4.036,1.67H54.215v2.854A5.709,5.709,0,0,1,48.506,31.4H45.652v4.527a5.669,5.669,0,0,1-1.673,4.036l-1.855,1.855a20.934,20.934,0,0,1-.134,11.075,21.49,21.49,0,0,1-18.348,15.5A21.851,21.851,0,0,1,21.4,68.5Zm0-37.106A15.7,15.7,0,1,0,36.5,51.349a15.413,15.413,0,0,0-.285-9.419,2.854,2.854,0,0,1,.679-2.954l3.048-3.051V31.4a5.709,5.709,0,0,1,5.709-5.709h2.854V22.835a5.709,5.709,0,0,1,5.709-5.709h4.527l1.918-1.918a7.19,7.19,0,0,0,2.118-5.115A4.387,4.387,0,0,0,58.4,5.709a7.193,7.193,0,0,0-5.118,2.121L29.5,31.606a2.854,2.854,0,0,1-2.957.676A15.59,15.59,0,0,0,21.39,31.4Zm-7.15,19.98a2.854,2.854,0,1,0,2.854-2.854A2.854,2.854,0,0,0,14.255,51.378Z" transform="translate(-0.009)"/>
</svg>
