<svg xmlns="http://www.w3.org/2000/svg" width="45.728" height="45.55" viewBox="0 0 45.728 45.55">
  <defs>
    <style>
      .cls-1 {
        fill: #f5f5f5;
      }
    </style>
  </defs>
  <path id="laurel-user" class="cls-1" d="M45.2,27.339l.5-1.5c-.8-.43-1.3-.755-2.3-1.2,4.142-4.8,1.54-12.942,1.04-15.057-.542.205-1.985.687-2.535.951C41.822,4.426,33.825.8,31.921.04L31.2,1.913a17.01,17.01,0,0,0,1.51,14.108,31.177,31.177,0,0,1,.358,5.04c0,.008-.006.015-.008.023h.008c-.067,4.981-1.466,9.245-4.1,12.3a10.816,10.816,0,0,1-6.109,3.779,10.816,10.816,0,0,1-6.109-3.779c-2.632-3.058-4.03-7.324-4.1-12.3h.008c0-.01-.006-.017-.008-.025a31.355,31.355,0,0,1,.356-5.036A17.006,17.006,0,0,0,14.519,1.915L13.8.04C11.921.778,3.879,4.447,3.814,10.525c-.54-.261-2.006-.751-2.537-.951-.5,2.081-3.094,10.264,1.031,15.043-1.023.458-1.51.778-2.328,1.217l.5,1.5A12.869,12.869,0,0,0,5.6,33.464a11.853,11.853,0,0,0-2.695,3.252c1.679,1.609,2.324,3.2,7.784,4.937-.439,1-.742,2.046-1.057,2.938,3.047.892,9.184,1.742,13.225-.078,4.047,1.82,10.175.972,13.225.078-.321-.9-.614-1.927-1.057-2.938,5.466-1.746,6.1-3.322,7.784-4.937A11.871,11.871,0,0,0,40.1,33.449,12.842,12.842,0,0,0,45.2,27.339Zm-8.429-4.509c.025-.358.063-.709.076-1.073A13.1,13.1,0,0,1,41.727,15a13.668,13.668,0,0,1-.494,6.175,4.262,4.262,0,0,1-2.391,1.972,20.646,20.646,0,0,0-2.071-.321ZM34.228,5.517A10.567,10.567,0,0,1,37.86,9.359c.768,1.605-.437,3.912-1.47,5.369A12.879,12.879,0,0,1,34.228,5.517ZM7.859,9.359a10.552,10.552,0,0,1,3.632-3.845,12.866,12.866,0,0,1-2.16,9.214C8.3,13.269,7.091,10.964,7.859,9.359ZM4.491,21.181a13.688,13.688,0,0,1-.5-6.173,13.117,13.117,0,0,1,4.884,6.751c.011.361.049.711.074,1.065a20.878,20.878,0,0,0-2.086.321,4.248,4.248,0,0,1-2.375-1.966Zm.432,6.474A18.536,18.536,0,0,1,9.457,26.6a23.1,23.1,0,0,0,1.194,3.861c-.508.2-.983.413-1.428.635a9.955,9.955,0,0,1-4.3-3.438Zm3.144,8.689a13.984,13.984,0,0,1,4.311-2.478,15.983,15.983,0,0,0,1.729,2.254,23.9,23.9,0,0,0-1.487,2.02A10.41,10.41,0,0,1,8.067,36.344Zm6.828,5.375a20.815,20.815,0,0,1,2.054-3.062,13.172,13.172,0,0,0,4.834,2.176,13.671,13.671,0,0,1-6.888.888Zm9.049-.888a13.18,13.18,0,0,0,4.836-2.176,21.069,21.069,0,0,1,2.054,3.062,13.663,13.663,0,0,1-6.888-.888Zm9.163-2.693a23.9,23.9,0,0,0-1.487-2.02,15.874,15.874,0,0,0,1.729-2.254,14.025,14.025,0,0,1,4.311,2.476,10.387,10.387,0,0,1-4.553,1.8Zm3.38-7.056c-.441-.219-.909-.426-1.411-.626A23.049,23.049,0,0,0,36.267,26.6a18.607,18.607,0,0,1,4.492,1.054,9.944,9.944,0,0,1-4.275,3.429Zm-17.449-15.9a3.8,3.8,0,1,1,3.8,3.8A3.807,3.807,0,0,1,19.036,15.178Zm.951,13.313h-3.8V25.638a4.761,4.761,0,0,1,4.755-4.755h3.8A4.76,4.76,0,0,1,29.5,25.638v2.853h-3.8V25.638a.952.952,0,0,0-.951-.951h-3.8a.951.951,0,0,0-.951.951Z" transform="translate(0.02 -0.04)"/>
</svg>
