<svg xmlns="http://www.w3.org/2000/svg" width="34.165" height="45.55" viewBox="0 0 34.165 45.55">
  <defs>
    <style>
      .cls-1 {
        fill: #f5f5f5;
      }
    </style>
  </defs>
  <path id="sculpture" class="cls-1" d="M36.96,28.969a5.57,5.57,0,0,0-3.3-3.729,36.532,36.532,0,0,0-7.745-1.96A16.476,16.476,0,0,0,31.47,11.387a11.387,11.387,0,1,0-22.774,0,16.484,16.484,0,0,0,5.551,11.89A36.668,36.668,0,0,0,6.5,25.239a5.572,5.572,0,0,0-3.3,3.727,5.767,5.767,0,0,0,1,5.05,63.746,63.746,0,0,1,5.185,7.738H8.7a1.9,1.9,0,0,0,0,3.8H31.47a1.9,1.9,0,0,0,0-3.8h-.693a63.9,63.9,0,0,1,5.185-7.738,5.761,5.761,0,0,0,1-5.048ZM12.489,11.387a7.591,7.591,0,1,1,15.183,0c0,4.557-3.68,10.438-7.591,10.438S12.489,15.944,12.489,11.387Zm20.457,20.32a62.408,62.408,0,0,0-6.434,10.045H13.647A55.85,55.85,0,0,0,8.862,33.92a30.874,30.874,0,0,0,7.493,1.911c.714.068,2.505.228,3.724.228,1.469,0,3.822-.237,3.836-.239.742-.091,2.213-.41,2.213-.41a1.869,1.869,0,0,0,1.543-1.826,1.9,1.9,0,0,0-1.9-1.9c-.125,0-.362.032-.362.032s-1.306.254-1.928.332c-.414.042-2.313.214-3.4.214-.862,0-2.3-.108-3.361-.211a30.412,30.412,0,0,1-9.394-2.879c-.055-.027-.021-.017.006-.006a1.712,1.712,0,0,1,.6-.414A38,38,0,0,1,16.4,26.8l3.678-.228,3.566.218a38.1,38.1,0,0,1,8.584,1.964,1.782,1.782,0,0,1,1.065,1.209,1.98,1.98,0,0,1-.349,1.742Z" transform="translate(-3)"/>
</svg>
